<svg xmlns="http://www.w3.org/2000/svg" viewBox="0 0 64 64"><g id="Layer_8" data-name="Layer 8"><path d="M30.5,15.31c-.9-1.76-3.81-4-5.27-4.1l5.27,5.27Z" id="id_101" style="fill: rgb(212, 0, 0);"></path><path d="M32,21.5c-24.39.64-24.39,36.36,0,37C56.39,57.86,56.39,22.14,32,21.5ZM20,34a1,1,0,0,1-2,0,6,6,0,0,1,12,0,1,1,0,0,1-2,0C28,28.77,20,28.77,20,34ZM32,51.35c-5.31,0-9.63-3.75-9.63-8.35a1,1,0,0,1,2,0c.15,8.34,15.12,8.33,15.27,0a1,1,0,0,1,2,0C41.65,47.6,37.33,51.35,32,51.35ZM45,35a1,1,0,0,1-1-1c0-5.23-8-5.23-8,0a1,1,0,0,1-2,0c0-7.85,12-7.84,12,0A1,1,0,0,1,45,35Z" id="id_102" style="fill: rgb(255, 200, 0);"></path><path d="M35.74,18.84c4,1.35,11.94-7,10.62-10.62Z" id="id_103" style="fill: rgb(0, 242, 8);"></path><path d="M34.31,17.45,44.94,6.81C40.82,5.53,33,13.77,34.31,17.45Z" id="id_104" style="fill: rgb(22, 204, 28);"></path><path d="M26.07,16.43a6.77,6.77,0,0,0,3.74,2.18l-6-6A7.47,7.47,0,0,0,26.07,16.43Z" id="id_105" style="fill: rgb(255, 0, 0);"></path></g></svg>